<svg xmlns="http://www.w3.org/2000/svg" viewBox="0 0 64 64" fill="none">
  <circle cx="32" cy="20" r="8" fill="#F5F1E8" stroke="#2D5016" stroke-width="2.5"/>
  <path d="M20 42C20 35 25 30 32 30C39 30 44 35 44 42" stroke="#2D5016" stroke-width="2.5" stroke-linecap="round"/>
  <path d="M20 42V50C20 51.1046 20.8954 52 22 52H42C43.1046 52 44 51.1046 44 50V42" fill="#7DB835"/>
  <circle cx="28" cy="18" r="2" fill="#2D5016"/>
  <circle cx="36" cy="18" r="2" fill="#2D5016"/>
  <path d="M28 22C28 22 30 24 32 24C34 24 36 22 36 22" stroke="#2D5016" stroke-width="1.5" stroke-linecap="round"/>
  <path d="M24 12C24 12 26 10 28 10" stroke="#2D5016" stroke-width="1.5" stroke-linecap="round"/>
  <path d="M40 12C40 12 38 10 36 10" stroke="#2D5016" stroke-width="1.5" stroke-linecap="round"/>
  <path d="M26 44L28 46L30 44" stroke="#FFFFFF" stroke-width="2" stroke-linecap="round" stroke-linejoin="round"/>
  <path d="M34 44L36 46L38 44" stroke="#FFFFFF" stroke-width="2" stroke-linecap="round" stroke-linejoin="round"/>
</svg>