<svg xmlns="http://www.w3.org/2000/svg" viewBox="0 0 256 256" width="256" height="256">
  <rect width="256" height="256" fill="none"/>
  <path d="M200 96h-40V64a8 8 0 0 0-8-8H56a8 8 0 0 0-8 8v112a24 24 0 0 0 48 0h48a24 24 0 0 0 48 0h8a8 8 0 0 0 8-8v-48a8 8 0 0 0-2.34-5.66l-24-24A8 8 0 0 0 200 96zm-8 17.66L209.66 132H168v-24h24zM64 192a8 8 0 0 1-16 0v-8h16zm80 0a8 8 0 0 1-16 0v-8h16zm40-28h-8v-52a8 8 0 0 0-8-8H64V72h80v88a8 8 0 0 0 8 8h32z" fill="#2D5016"/>
  <circle cx="72" cy="192" r="12" fill="#7DB835"/>
  <circle cx="152" cy="192" r="12" fill="#7DB835"/>
</svg>
