<svg xmlns="http://www.w3.org/2000/svg" viewBox="0 0 256 256" width="256" height="256">
  <rect width="256" height="256" fill="none"/>
  <path d="M205.41 159.07a60.9 60.9 0 0 1-31.83 8.86 71.71 71.71 0 0 1-27.36-5.66A55.55 55.55 0 0 0 136 160a40.51 40.51 0 0 0-32-15.06 56.45 56.45 0 0 1-23.28-5.13 8 8 0 1 1 6.56-14.62 40.47 40.47 0 0 0 16.72 3.75 56.45 56.45 0 0 1 23.28 5.13A71.71 71.71 0 0 0 154.64 140a55.55 55.55 0 0 1 10.22-2.27 40.51 40.51 0 0 1 32 15.06 56.47 56.47 0 0 0 23.28 5.13 8 8 0 0 1 0 16 72.08 72.08 0 0 1-14.73-1.85zM80.73 125.27a8 8 0 0 0 11.54 11.46C113.38 115.65 128 89.27 128 64a16 16 0 0 0-32 0c0 10.11-3.89 22.39-10.73 33.27zm48 0a8 8 0 0 0 11.54 11.46C161.38 115.65 176 89.27 176 64a16 16 0 0 0-32 0c0 10.11-3.89 22.39-10.73 33.27z" fill="#7DB835"/>
  <path d="M224 224H32a8 8 0 0 1 0-16h192a8 8 0 0 1 0 16zM80 184a40 40 0 0 0-40 40 8 8 0 0 0 16 0 24 24 0 0 1 48 0 8 8 0 0 0 16 0 40 40 0 0 0-40-40zm96 0a40 40 0 0 0-40 40 8 8 0 0 0 16 0 24 24 0 0 1 48 0 8 8 0 0 0 16 0 40 40 0 0 0-40-40z" fill="#2D5016"/>
</svg>
