<svg xmlns="http://www.w3.org/2000/svg" viewBox="0 0 64 64" fill="none">
  <path d="M32 8c-4 0-8 2-10 6-2-4-6-6-10-6-6 0-10 6-10 12 0 16 20 28 20 28s20-12 20-28c0-6-4-12-10-12z" fill="#7DB835"/>
  <path d="M32 16c-2-4-6-6-10-6-4 0-8 4-8 8 0 10 12 18 18 22 6-4 18-12 18-22 0-4-4-8-8-8-4 0-8 2-10 6z" fill="#D4E5B8"/>
  <circle cx="32" cy="12" r="3" fill="#6A994E"/>
  <path d="M32 8v8" stroke="#2D5016" stroke-width="2" stroke-linecap="round"/>
  <path d="M28 10l8 4m-8 0l8-4" stroke="#2D5016" stroke-width="1.5" stroke-linecap="round"/>
</svg>