<svg xmlns="http://www.w3.org/2000/svg" viewBox="0 0 64 64" fill="none">
  <path d="M32 52C42.4934 52 51 43.4934 51 33C51 22.5066 42.4934 14 32 14C21.5066 14 13 22.5066 13 33C13 43.4934 21.5066 52 32 52Z" stroke="#2D5016" stroke-width="3" stroke-linecap="round" stroke-linejoin="round"/>
  <circle cx="32" cy="33" r="4" fill="#E63946"/>
  <path d="M32 29V18" stroke="#E63946" stroke-width="2.5" stroke-linecap="round"/>
  <path d="M28 32L20 26" stroke="#2D5016" stroke-width="2" stroke-linecap="round"/>
  <path d="M36 32L44 26" stroke="#2D5016" stroke-width="2" stroke-linecap="round"/>
  <path d="M28 34L22 42" stroke="#2D5016" stroke-width="2" stroke-linecap="round"/>
  <path d="M36 34L42 42" stroke="#2D5016" stroke-width="2" stroke-linecap="round"/>
  <path d="M32 37V46" stroke="#2D5016" stroke-width="2" stroke-linecap="round"/>
  <path d="M20 14C20 14 24 16 28 16" stroke="#7DB835" stroke-width="2" stroke-linecap="round"/>
  <path d="M44 14C44 14 40 16 36 16" stroke="#7DB835" stroke-width="2" stroke-linecap="round"/>
</svg>