<svg xmlns="http://www.w3.org/2000/svg" viewBox="0 0 64 64" fill="none">
  <circle cx="32" cy="32" r="20" stroke="#E63946" stroke-width="4"/>
  <line x1="16" y1="16" x2="48" y2="48" stroke="#E63946" stroke-width="4" stroke-linecap="round"/>
  <path d="M24 28C24 28 22 30 22 32C22 34 24 36 28 36C32 36 34 34 34 32C34 30 32 28 32 28" stroke="#2D5016" stroke-width="2.5" stroke-linecap="round" stroke-linejoin="round"/>
  <path d="M32 28V24C32 22 34 20 36 20C38 20 40 22 40 24V32" stroke="#2D5016" stroke-width="2.5" stroke-linecap="round" stroke-linejoin="round"/>
  <circle cx="28" cy="31" r="1.5" fill="#2D5016"/>
  <circle cx="32" cy="31" r="1.5" fill="#2D5016"/>
  <path d="M26 40L28 44L30 42" stroke="#7DB835" stroke-width="2" stroke-linecap="round" stroke-linejoin="round"/>
  <path d="M34 40L36 44L38 42" stroke="#7DB835" stroke-width="2" stroke-linecap="round" stroke-linejoin="round"/>
</svg>