<svg xmlns="http://www.w3.org/2000/svg" viewBox="0 0 64 64" fill="none">
  <path d="M32 12L28 20L20 22L26 28L24 36L32 32L40 36L38 28L44 22L36 20L32 12Z" fill="#7DB835" stroke="#2D5016" stroke-width="2" stroke-linejoin="round"/>
  <ellipse cx="20" cy="46" rx="8" ry="10" fill="#6A994E"/>
  <path d="M20 36C20 36 16 38 16 42C16 46 20 50 20 50" stroke="#2D5016" stroke-width="1.5"/>
  <ellipse cx="44" cy="46" rx="8" ry="10" fill="#6A994E"/>
  <path d="M44 36C44 36 40 38 40 42C40 46 44 50 44 50" stroke="#2D5016" stroke-width="1.5"/>
  <circle cx="32" cy="48" r="6" fill="#E63946"/>
  <path d="M32 42C32 42 28 44 28 48C28 52 32 54 32 54" stroke="#2D5016" stroke-width="1.5"/>
  <circle cx="18" cy="45" r="2" fill="#2D5016"/>
  <circle cx="22" cy="45" r="2" fill="#2D5016"/>
  <circle cx="42" cy="45" r="2" fill="#2D5016"/>
  <circle cx="46" cy="45" r="2" fill="#2D5016"/>
</svg>