<svg xmlns="http://www.w3.org/2000/svg" viewBox="0 0 256 256" width="256" height="256">
  <rect width="256" height="256" fill="none"/>
  <path d="M232 120a48.05 48.05 0 0 0-48-48h-16a48.05 48.05 0 0 0-80 0H72a48 48 0 0 0 0 96h112a48 48 0 0 0 48-48zm-48 32H72a32 32 0 0 1 0-64h16a8 8 0 0 0 8-8 32 32 0 0 1 64 0 8 8 0 0 0 8 8h16a32 32 0 0 1 0 64z" fill="#7DB835"/>
  <circle cx="96" cy="120" r="8" fill="#E63946"/>
  <circle cx="160" cy="120" r="8" fill="#F77F00"/>
  <path d="M128 140a16 16 0 0 1-16-16 8 8 0 0 0-16 0 32 32 0 0 0 64 0 8 8 0 0 0-16 0 16 16 0 0 1-16 16z" fill="#2D5016"/>
</svg>
