<svg xmlns="http://www.w3.org/2000/svg" viewBox="0 0 256 256" width="256" height="256">
  <rect width="256" height="256" fill="none"/>
  <circle cx="128" cy="104" r="32" fill="#E63946"/>
  <circle cx="128" cy="104" r="24" fill="#FFFFFF"/>
  <path d="M128 16a88.1 88.1 0 0 0-88 88c0 31.4 14.51 64.68 42 96.25a254.19 254.19 0 0 0 41.45 38.3 8 8 0 0 0 9.18 0 254.19 254.19 0 0 0 41.37-38.3c27.45-31.57 42-64.85 42-96.25A88.1 88.1 0 0 0 128 16zm0 206c-16.53-13-72-60.75-72-118a72 72 0 0 1 144 0c0 57.23-55.47 105-72 118z" fill="#2D5016"/>
  <path d="M128 72a32 32 0 1 0 32 32 32 32 0 0 0-32-32zm0 48a16 16 0 1 1 16-16 16 16 0 0 1-16 16z" fill="#2D5016"/>
</svg>
