<svg xmlns="http://www.w3.org/2000/svg" viewBox="0 0 256 256" width="256" height="256">
  <rect width="256" height="256" fill="none"/>
  <path d="M96 80c-16 0-32 8-32 24v64c0 16 16 24 32 24h64c16 0 32-8 32-24V104c0-16-16-24-32-24z" fill="#7DB835"/>
  <ellipse cx="128" cy="104" rx="48" ry="24" fill="#D4E5B8"/>
  <path d="M128 40c-8 8-16 16-16 24s8 16 16 16 16-8 16-16-8-16-16-24z" fill="#2D5016"/>
  <line x1="96" y1="128" x2="96" y2="168" stroke="#6A994E" stroke-width="6"/>
  <line x1="128" y1="128" x2="128" y2="168" stroke="#6A994E" stroke-width="6"/>
  <line x1="160" y1="128" x2="160" y2="168" stroke="#6A994E" stroke-width="6"/>
  <circle cx="112" cy="110" r="4" fill="#2D5016"/>
  <circle cx="144" cy="110" r="4" fill="#2D5016"/>
  <path d="M112 120c4 4 8 4 16 4s12 0 16-4" fill="none" stroke="#2D5016" stroke-width="3" stroke-linecap="round"/>
</svg>
