<svg xmlns="http://www.w3.org/2000/svg" viewBox="0 0 256 256" width="256" height="256">
  <rect width="256" height="256" fill="none"/>
  <path d="M128 32c-24 16-40 40-40 72 0 32 16 56 40 72 24-16 40-40 40-72 0-32-16-56-40-72z" fill="#E63946"/>
  <path d="M128 32c-8 5-16 13-22 22-6 9-10 20-12 30-2 10-2 21 0 30 2 10 6 21 12 30 6 9 14 17 22 22" fill="none" stroke="#C1121F" stroke-width="8"/>
  <circle cx="128" cy="104" r="16" fill="#FFFFFF" opacity="0.5"/>
  <path d="M128 176c-16-12-24-28-24-48s8-36 24-48" fill="none" stroke="#FFFFFF" stroke-width="6" opacity="0.3"/>
</svg>
